# xmcd CD database file
#
# Track frame offsets:
#	150
#	62005
#	99730
#	138655
#
# Disc length: 3244 seconds
#
# Revision: 0
# Processed by: cddbd v1.5.2PL0 Copyright (c) Steve Scherf et al.
# Submitted via: CDex 1.51
#
DISCID=360caa04
DTITLE=in process - norman
DYEAR=1997
DGENRE=Jazz
TTITLE0=hal
TTITLE1=music for pieces of wood
TTITLE2=le moine a la mer
TTITLE3=norman
EXTD=YEAR: 1997
EXTT0=
EXTT1=
EXTT2=
EXTT3=
PLAYORDER=
